<svg width="32" height="32" fill="none" xmlns="http://www.w3.org/2000/svg"><rect width="32" height="32" rx="3" fill="#63A60E"/><path d="M23.899 10.02a.462.462 0 00-.36-.174H11.254l-.344-1.488A.462.462 0 0010.46 8h-2a.462.462 0 000 .923h1.633l2.332 10.104c.048.21.235.358.45.358h9.247a.461.461 0 100-.923h-8.88l-.355-1.539h9.266c.216 0 .403-.15.45-.36l1.385-6.154a.462.462 0 00-.09-.39zM21.785 16h-9.11l-1.207-5.23h11.494L21.785 16zm-7.015 4c-.934 0-1.693.76-1.693 1.692 0 .933.76 1.693 1.692 1.693.933 0 1.693-.76 1.693-1.693S15.702 20 14.769 20zm0 2.462a.77.77 0 010-1.539.77.77 0 010 1.539zM20.308 20c-.933 0-1.693.76-1.693 1.692 0 .933.76 1.693 1.693 1.693S22 22.625 22 21.692 21.24 20 20.308 20zm0 2.462a.77.77 0 11.001-1.54.77.77 0 01-.001 1.54z" fill="#fff"/></svg>