<svg width="210" height="62" xmlns="http://www.w3.org/2000/svg" fill="none">
 <g>
  <title>Layer 1</title>
  <line y1="181.5" x2="300" y2="181.5" stroke="#C1C1C1" stroke-opacity="0.3" id="svg_1"/>
  <line y1="361.5" x2="300" y2="361.5" stroke="#C1C1C1" stroke-opacity="0.3" id="svg_2"/>
  <path d="m93.9009,30.18c-2.1093,0 -3.864,-0.252 -5.264,-0.756c-1.3813,-0.504 -2.4173,-1.3347 -3.108,-2.492c-0.672,-1.176 -1.008,-2.744 -1.008,-4.704c0,-1.9973 0.3453,-3.5653 1.036,-4.704c0.7093,-1.1387 1.7547,-1.9507 3.136,-2.436c1.4,-0.4853 3.136,-0.728 5.208,-0.728c2.128,0 3.8827,0.252 5.264,0.756c1.3811,0.4853 2.4081,1.3067 3.0801,2.464c0.691,1.1387 1.036,2.688 1.036,4.648c0,1.9973 -0.355,3.584 -1.064,4.76c-0.691,1.1573 -1.736,1.9787 -3.1361,2.464c-1.3813,0.4853 -3.108,0.728 -5.18,0.728zm0,-2.324c1.2693,0 2.3147,-0.0747 3.136,-0.224c0.84,-0.168 1.484,-0.448 1.932,-0.84c0.4667,-0.4107 0.784,-0.9707 0.952,-1.68c0.1871,-0.728 0.2801,-1.6613 0.2801,-2.8c0,-1.1573 -0.093,-2.1 -0.2801,-2.828c-0.168,-0.7467 -0.4853,-1.3253 -0.952,-1.736c-0.448,-0.4107 -1.092,-0.6907 -1.932,-0.84c-0.8213,-0.168 -1.8667,-0.252 -3.136,-0.252c-1.2507,0 -2.2867,0.084 -3.108,0.252c-0.8213,0.1493 -1.4653,0.4293 -1.932,0.84c-0.4667,0.4107 -0.7933,0.9893 -0.98,1.736c-0.168,0.728 -0.252,1.6707 -0.252,2.828c0,1.1387 0.0933,2.072 0.28,2.8c0.1867,0.7093 0.5133,1.2693 0.98,1.68c0.4667,0.392 1.1107,0.672 1.932,0.84c0.8213,0.1493 1.848,0.224 3.08,0.224zm-1.484,4.172l0.084,-8.988l-0.084,-10.556l2.996,0l-0.112,8.624l0.112,10.892l-2.996,0.028zm14.8081,-0.028l0.112,-9.072l-0.112,-10.444c0,0 0.205,-0.0187 0.616,-0.056c0.429,-0.0373 0.98,-0.084 1.652,-0.14c0.672,-0.056 1.409,-0.1027 2.212,-0.14c0.803,-0.0373 1.577,-0.056 2.324,-0.056c1.773,0 3.145,0.56 4.116,1.68c0.989,1.1013 1.484,2.7627 1.484,4.984c0,1.3813 -0.177,2.5293 -0.532,3.444c-0.355,0.896 -0.831,1.596 -1.428,2.1c-0.579,0.504 -1.241,0.868 -1.988,1.092c-0.728,0.2053 -1.475,0.308 -2.24,0.308c-0.616,0 -1.251,-0.0187 -1.904,-0.056c-0.653,-0.056 -1.101,-0.084 -1.344,-0.084l0,6.44l-2.968,0zm6.356,-8.736c0.56,0 1.008,-0.0373 1.344,-0.112c0.355,-0.0747 0.635,-0.2053 0.84,-0.392c0.28,-0.28 0.467,-0.7747 0.56,-1.484c0.112,-0.7093 0.168,-1.6427 0.168,-2.8c0,-0.9333 -0.047,-1.6427 -0.14,-2.128c-0.075,-0.504 -0.177,-0.8587 -0.308,-1.064c-0.131,-0.224 -0.261,-0.3733 -0.392,-0.448c-0.168,-0.1307 -0.448,-0.2333 -0.84,-0.308c-0.392,-0.0933 -0.859,-0.14 -1.4,-0.14c-0.635,0 -1.241,0.028 -1.82,0.084c-0.579,0.056 -1.045,0.112 -1.4,0.168l0,8.316c0.187,0.0187 0.607,0.0747 1.26,0.168c0.672,0.0933 1.381,0.14 2.128,0.14zm10.242,8.736l0,-19.516l10.248,0l0,2.576l-8.596,-0.112l1.372,-1.316l-0.224,8.288l-1.288,-1.092l8.036,0l0,2.492l-8.036,0l1.288,-1.148l0.224,8.652l-1.372,-1.344l8.596,-0.056l0,2.576l-10.248,0zm14.711,0l0,-19.516l2.968,0l-0.084,9.464l0,8.82l-1.344,-1.344l8.764,0l-1.344,1.344l0.028,-8.68l-0.056,-9.604l2.968,0l-0.084,9.604l0.056,8.68l-1.344,-1.344l8.68,0l-1.344,1.344l0,-8.764l-0.084,-9.52l2.968,0l0,19.516l-20.748,0zm32.858,0.392c-1.026,0 -1.997,-0.1493 -2.912,-0.448c-0.914,-0.2987 -1.726,-0.8213 -2.436,-1.568c-0.69,-0.7467 -1.232,-1.7827 -1.624,-3.108c-0.392,-1.3253 -0.588,-3.0147 -0.588,-5.068c0,-2.0533 0.196,-3.7333 0.588,-5.04c0.392,-1.3253 0.934,-2.352 1.624,-3.08c0.71,-0.7467 1.522,-1.26 2.436,-1.54c0.915,-0.2987 1.886,-0.448 2.912,-0.448c1.027,0 1.988,0.1493 2.884,0.448c0.915,0.28 1.718,0.7933 2.408,1.54c0.71,0.728 1.26,1.7453 1.652,3.052c0.392,1.3067 0.588,2.996 0.588,5.068c0,2.0533 -0.196,3.7427 -0.588,5.068c-0.392,1.3253 -0.942,2.3613 -1.652,3.108c-0.69,0.7467 -1.493,1.2693 -2.408,1.568c-0.896,0.2987 -1.857,0.448 -2.884,0.448zm0,-2.66c0.747,0 1.4,-0.084 1.96,-0.252c0.56,-0.168 1.018,-0.504 1.372,-1.008c0.374,-0.5227 0.644,-1.2787 0.812,-2.268c0.187,-0.9893 0.28,-2.3053 0.28,-3.948c0,-1.624 -0.084,-2.9307 -0.252,-3.92c-0.168,-1.008 -0.429,-1.764 -0.784,-2.268c-0.354,-0.5227 -0.821,-0.8773 -1.4,-1.064c-0.56,-0.1867 -1.222,-0.28 -1.988,-0.28c-0.802,0 -1.484,0.0933 -2.044,0.28c-0.541,0.1867 -0.989,0.5413 -1.344,1.064c-0.354,0.504 -0.616,1.26 -0.784,2.268c-0.168,0.9893 -0.252,2.3053 -0.252,3.948c0,1.624 0.084,2.9307 0.252,3.92c0.168,0.9893 0.43,1.7453 0.784,2.268c0.374,0.504 0.84,0.84 1.4,1.008c0.56,0.168 1.223,0.252 1.988,0.252zm22.903,2.268l-7.756,-10.108l7.196,-9.408l3.584,0l-7.42,9.24l0,0.168l8.148,10.108l-3.752,0zm-10.808,0l0.084,-9.912l-0.084,-9.604l2.996,0l0,19.516l-2.996,0z" fill="#63A60E" id="svg_3"/>
  <path d="m97.2805,50.168c-0.44,0 -0.856,-0.064 -1.248,-0.192c-0.392,-0.128 -0.74,-0.352 -1.044,-0.672c-0.296,-0.32 -0.528,-0.764 -0.696,-1.332c-0.168,-0.568 -0.252,-1.292 -0.252,-2.172c0,-0.88 0.084,-1.6 0.252,-2.16c0.168,-0.568 0.4,-1.008 0.696,-1.32c0.304,-0.32 0.652,-0.54 1.044,-0.66c0.392,-0.128 0.808,-0.192 1.248,-0.192c0.44,0 0.852,0.064 1.236,0.192c0.392,0.12 0.736,0.34 1.032,0.66c0.304,0.312 0.5395,0.748 0.7075,1.308c0.168,0.56 0.252,1.284 0.252,2.172c0,0.88 -0.084,1.604 -0.252,2.172c-0.168,0.568 -0.4035,1.012 -0.7075,1.332c-0.296,0.32 -0.64,0.544 -1.032,0.672c-0.384,0.128 -0.796,0.192 -1.236,0.192zm0,-1.14c0.32,0 0.6,-0.036 0.84,-0.108c0.24,-0.072 0.436,-0.216 0.588,-0.432c0.16,-0.224 0.276,-0.548 0.348,-0.972c0.08,-0.424 0.12,-0.988 0.12,-1.692c0,-0.696 -0.036,-1.256 -0.108,-1.68c-0.072,-0.432 -0.184,-0.756 -0.336,-0.972c-0.152,-0.224 -0.352,-0.376 -0.6,-0.456c-0.24,-0.08 -0.524,-0.12 -0.852,-0.12c-0.344,0 -0.636,0.04 -0.876,0.12c-0.232,0.08 -0.424,0.232 -0.576,0.456c-0.152,0.216 -0.264,0.54 -0.336,0.972c-0.072,0.424 -0.108,0.988 -0.108,1.692c0,0.696 0.036,1.256 0.108,1.68c0.072,0.424 0.184,0.748 0.336,0.972c0.16,0.216 0.36,0.36 0.6,0.432c0.24,0.072 0.524,0.108 0.852,0.108zm5.1835,0.972l0,-8.364l1.272,0l-0.036,3.972l-0.564,-0.42l4.428,0l-0.564,0.42l-0.036,-3.972l1.272,0l0,8.364l-1.272,0l0.036,-4.128l0.564,0.42l-4.428,0l0.564,-0.42l0.036,4.128l-1.272,0zm7.401,0.168l-0.216,-0.948c0.112,-0.016 0.216,-0.032 0.312,-0.048c0.096,-0.024 0.176,-0.048 0.24,-0.072c0.16,-0.056 0.284,-0.136 0.372,-0.24c0.088,-0.104 0.156,-0.28 0.204,-0.528c0.056,-0.248 0.096,-0.608 0.12,-1.08l0.372,-5.616l4.848,0l0,8.364l-1.272,0l0.06,-7.272l-2.472,0l-0.312,4.644c-0.04,0.568 -0.108,1.044 -0.204,1.428c-0.096,0.384 -0.264,0.676 -0.504,0.876c-0.168,0.144 -0.392,0.26 -0.672,0.348c-0.272,0.096 -0.564,0.144 -0.876,0.144zm7.431,-0.168l2.28,-8.364l1.728,0l2.28,8.364l-1.296,0l-0.648,-2.556l0.672,0.444l-3.72,0l0.648,-0.444l-0.636,2.556l-1.308,0zm1.956,-2.628l-0.432,-0.576l3.252,0l-0.432,0.576l-1.296,-5.148l0.708,0.552l-1.212,0l0.696,-0.552l-1.284,5.148zm5.536,2.628l0,-8.364l1.224,0l-0.048,4.248l0,2.292l3.096,-6.54l1.752,0l0,8.364l-1.224,0l0.048,-3.852l0,-3.216l-3.336,7.068l-1.512,0zm2.988,-8.676c-0.608,0 -1.08,-0.144 -1.416,-0.432c-0.328,-0.288 -0.508,-0.748 -0.54,-1.38l0.816,-0.036c0.04,0.288 0.144,0.504 0.312,0.648c0.168,0.144 0.444,0.216 0.828,0.216c0.424,0 0.72,-0.072 0.888,-0.216c0.168,-0.144 0.272,-0.36 0.312,-0.648l0.72,0.036c-0.016,0.424 -0.104,0.772 -0.264,1.044c-0.16,0.264 -0.38,0.46 -0.66,0.588c-0.272,0.12 -0.604,0.18 -0.996,0.18zm5.391,8.676l0,-8.364l1.272,0l-0.036,3.972l-0.564,-0.42l4.428,0l-0.564,0.42l-0.036,-3.972l1.272,0l0,8.364l-1.272,0l0.036,-4.128l0.564,0.42l-4.428,0l0.564,-0.42l0.036,4.128l-1.272,0zm7.413,-3.396l0,-1.068l2.856,0l0,1.068l-2.856,0zm4.457,3.396l0.288,-8.364l1.74,0l1.74,5.244l0.084,0l1.764,-5.244l1.74,0l0.288,8.364l-1.26,0l-0.048,-7.032l-0.084,0l-1.716,5.136l-1.44,0l-1.704,-5.136l-0.084,0l-0.048,7.032l-1.26,0zm8.763,0l2.28,-8.364l1.728,0l2.28,8.364l-1.296,0l-0.648,-2.556l0.672,0.444l-3.72,0l0.648,-0.444l-0.636,2.556l-1.308,0zm1.956,-2.628l-0.432,-0.576l3.252,0l-0.432,0.576l-1.296,-5.148l0.708,0.552l-1.212,0l0.696,-0.552l-1.284,5.148zm5.536,2.628l0.048,-3.888l-0.048,-4.476c0,0 0.088,-0.008 0.264,-0.024c0.184,-0.016 0.42,-0.036 0.708,-0.06c0.288,-0.024 0.604,-0.044 0.948,-0.06c0.344,-0.016 0.676,-0.024 0.996,-0.024c0.76,0 1.348,0.24 1.764,0.72c0.424,0.472 0.636,1.184 0.636,2.136c0,0.592 -0.076,1.084 -0.228,1.476c-0.152,0.384 -0.356,0.684 -0.612,0.9c-0.248,0.216 -0.532,0.372 -0.852,0.468c-0.312,0.088 -0.632,0.132 -0.96,0.132c-0.264,0 -0.536,-0.008 -0.816,-0.024c-0.28,-0.024 -0.472,-0.036 -0.576,-0.036l0,2.76l-1.272,0zm2.724,-3.744c0.24,0 0.432,-0.016 0.576,-0.048c0.152,-0.032 0.272,-0.088 0.36,-0.168c0.12,-0.12 0.2,-0.332 0.24,-0.636c0.048,-0.304 0.072,-0.704 0.072,-1.2c0,-0.4 -0.02,-0.704 -0.06,-0.912c-0.032,-0.216 -0.076,-0.368 -0.132,-0.456c-0.056,-0.096 -0.112,-0.16 -0.168,-0.192c-0.072,-0.056 -0.192,-0.1 -0.36,-0.132c-0.168,-0.04 -0.368,-0.06 -0.6,-0.06c-0.272,0 -0.532,0.012 -0.78,0.036c-0.248,0.024 -0.448,0.048 -0.6,0.072l0,3.564c0.08,0.008 0.26,0.032 0.54,0.072c0.288,0.04 0.592,0.06 0.912,0.06zm9.021,3.744l-3.324,-4.332l3.084,-4.032l1.536,0l-3.18,3.96l0,0.072l3.492,4.332l-1.608,0zm-4.632,0l0.036,-4.248l-0.036,-4.116l1.284,0l0,8.364l-1.284,0zm7.231,0l0,-8.364l4.392,0l0,1.104l-3.684,-0.048l0.588,-0.564l-0.096,3.552l-0.552,-0.468l3.444,0l0,1.068l-3.444,0l0.552,-0.492l0.096,3.708l-0.588,-0.576l3.684,-0.024l0,1.104l-4.392,0zm7.408,0l0.024,-7.296l-2.34,0.036l0,-1.104l5.916,0l0,1.104l-2.364,-0.036l0.024,7.296l-1.26,0z" fill="#63A60E" id="svg_4"/>
  <path opacity="0.2" d="m69.6482,59.0669c0,-0.5117 -11.4742,-0.9331 -25.6116,-0.9331c-14.1373,0 -25.6116,0.4214 -25.6116,0.9331c0,0.5117 11.4743,0.9331 25.6116,0.9331c14.1703,0 25.6116,-0.4214 25.6116,-0.9331z" fill="#5D5D5D" id="svg_5"/>
  <path d="m44.3985,11.8098c11.1455,0 20.1868,8.2775 20.1868,18.4815l0,18.4814l-20.1868,0c-11.1455,0 -20.1868,-8.2775 -20.1868,-18.4814l0,-18.4815l20.1868,0z" fill="#63A60E" id="svg_6"/>
  <path opacity="0.3" d="m61.692,20.7796c-1.6767,1.7759 -2.6959,4.0936 -2.6959,6.622c0,3.7625 2.2357,7.0434 5.5563,8.8193l0,-5.9297c0,-3.4615 -1.0192,-6.7123 -2.8604,-9.5116z" fill="#63A60E" id="svg_7"/>
  <path d="m53.7685,13.9468c-3.1563,1.6555 -5.2604,4.7559 -5.2604,8.3378c0,5.2976 4.7014,9.6019 10.4879,9.6019c2.0384,0 3.9453,-0.5418 5.5563,-1.4749l0,-0.1204c0,-7.1036 -4.3727,-13.2742 -10.7838,-16.3444z" fill="#63A60E" id="svg_8"/>
  <path opacity="0.5" d="m37.9216,15.3909c-5.1947,0 -9.9619,1.6555 -13.7099,4.4548l0,10.4748c0,10.204 9.0413,18.4815 20.1868,18.4815l9.666,0c3.5179,-3.5518 5.6549,-8.2474 5.6549,-13.4247c0,-11.0467 -9.7646,-19.9864 -21.7978,-19.9864z" fill="#E0EDCF" id="svg_9"/>
  <path d="m64.5524,48.7426l-20.1539,0.0301c-11.1455,0 -20.1868,-8.2776 -20.1868,-18.4815l0,-18.4514l40.3407,36.9028z" fill="#63A60E" id="svg_10"/>
  <path opacity="0.3" d="m27.335,18.4317c0,14.0267 12.4277,25.3744 27.7157,25.3744c1.3151,0 2.5973,-0.0903 3.8467,-0.2408l-31.2994,-28.6252c-0.1644,1.1438 -0.263,2.3177 -0.263,3.4916z" fill="#63A60E" id="svg_11"/>
  <path opacity="0.3" d="m64.5523,48.7727l-40.1763,-36.7823c4.7343,6.4715 10.192,13.0333 15.7483,18.4513c4.3398,4.214 16.8662,13.6353 24.428,18.331z" fill="#63A60E" id="svg_12"/>
  <path opacity="0.3" d="m37.3956,23.8799l-13.1839,-12.0401l0,18.4815c0,8.1571 5.7864,15.0801 13.7757,17.5183c-3.4193,-3.1606 -5.5235,-7.495 -5.5235,-12.2508c0,-4.515 1.874,-8.6086 4.9317,-11.7089z" fill="#63A60E" id="svg_13"/>
  <path opacity="0.3" d="m55.3467,40.3447c-3.4193,3.8227 -8.6139,6.2909 -14.4332,6.2909c-3.8796,0 -7.4961,-1.0836 -10.488,-2.9498c3.6166,3.1605 8.5153,5.117 13.9401,5.117l20.1868,0l0,-0.0301l-9.2057,-8.428z" fill="#63A60E" id="svg_14"/>
  <path opacity="0.3" d="m25.3953,22.8866c0,-2.9799 0.5589,-5.8695 1.611,-8.5183l-2.7946,-2.5285l0,18.4815c0,10.2039 9.0413,18.4815 20.1868,18.4815l20.1868,0l0,-0.0301l-2.0056,-1.8361c-2.9261,0.9632 -6.0494,1.4749 -9.3372,1.4749c-15.3867,-0.0301 -27.8472,-11.4381 -27.8472,-25.5249z" fill="#E0EDCF" id="svg_15"/>
  <path d="m64.2235,52.3546c1.4137,-0.3612 2.8932,0.4214 3.2549,1.7157c0.3945,1.2943 -0.4603,2.6488 -1.9069,2.9799c-1.4138,0.3612 -2.8933,-0.4214 -3.2549,-1.7157c-0.3617,-1.2943 0.4931,-2.6187 1.9069,-2.9799zm-0.5261,-1.8361c-2.5315,0.6321 -4.0439,2.9799 -3.3535,5.2976c0.6576,2.3177 3.2549,3.7023 5.7865,3.0702c2.5316,-0.6321 4.0439,-3.01 3.3535,-5.2976c-0.6576,-2.3177 -3.2549,-3.6722 -5.7865,-3.0702z" fill="#63A60E" id="svg_16"/>
  <path opacity="0.5" d="m67.0505,56.1768c-0.3617,0.4214 -0.8549,0.7526 -1.4467,0.9031c-1.4137,0.3612 -2.8932,-0.4215 -3.2548,-1.7158c-0.263,-0.9632 0.0986,-1.9264 0.8877,-2.4983c-0.3946,-0.5117 -0.7233,-1.0836 -1.0521,-1.6555c-1.5781,1.0234 -2.3672,2.8595 -1.8412,4.6655c0.6576,2.3178 3.2549,3.7024 5.7865,3.0703c1.1836,-0.301 2.137,-0.9632 2.7617,-1.8362c-0.6247,-0.301 -1.2493,-0.602 -1.8411,-0.9331z" fill="#63A60E" id="svg_17"/>
  <path d="m25.1648,52.3546c1.4137,-0.3311 2.8932,0.4515 3.2548,1.7458c0.3617,1.2943 -0.4931,2.6488 -1.9069,2.9799c-1.4137,0.3311 -2.8932,-0.4515 -3.2548,-1.7458c-0.3617,-1.2943 0.4931,-2.6488 1.9069,-2.9799zm-0.5261,-1.8361c-2.5315,0.602 -4.0439,2.9799 -3.3864,5.2976c0.6576,2.3177 3.2549,3.7023 5.7865,3.1003c2.5316,-0.602 4.0439,-2.9799 3.4192,-5.2976c-0.6904,-2.3177 -3.2877,-3.7023 -5.8193,-3.1003z" fill="#63A60E" id="svg_18"/>
  <path opacity="0.5" d="m27.9597,56.207c-0.3617,0.4214 -0.8548,0.7525 -1.4466,0.8729c-1.4138,0.3311 -2.8933,-0.4515 -3.2549,-1.7458c-0.263,-0.9632 0.1315,-1.9264 0.8877,-2.4983c-0.3945,-0.5117 -0.7233,-1.0836 -1.0192,-1.6555c-1.5781,0.9933 -2.4001,2.8294 -1.874,4.6354c0.6575,2.3177 3.2548,3.7023 5.7864,3.1003c1.1836,-0.2709 2.1699,-0.9632 2.7617,-1.8361c-0.6575,-0.2408 -1.2493,-0.5418 -1.8411,-0.8729z" fill="#63A60E" id="svg_19"/>
  <path d="m25.4938,10.5455c-0.6247,0 -1.1507,-0.4816 -1.1507,-1.05345c0,-2.46821 -0.7562,-4.33442 -2.2028,-5.56852c-2.3343,-2.01671 -5.8522,-1.80601 -5.8851,-1.80601c-0.6246,0.0602 -1.1836,-0.3913 -1.2493,-0.9632c-0.0658,-0.5719 0.4274,-1.0836 1.0521,-1.1438c0.1972,0 4.5371,-0.30101 7.6276,2.3177c1.9726,1.65551 2.9589,4.06352 2.9589,7.13372c0,0.60196 -0.4931,1.08356 -1.1507,1.08356z" fill="#63A60E" id="svg_20"/>
 </g>

</svg>