<svg width="113" height="12" fill="none" xmlns="http://www.w3.org/2000/svg"><path d="M6.104 3.76c-.57 0-1.009.199-1.319.595-.305.397-.458.946-.458 1.648 0 .766.144 1.333.43 1.702.292.37.737.554 1.334.554.392 0 .873-.103 1.442-.308V8.8a5.639 5.639 0 01-.677.232 3.072 3.072 0 01-.82.096c-.884 0-1.563-.273-2.037-.82-.474-.552-.71-1.32-.71-2.304 0-.953.25-1.71.751-2.27.506-.56 1.194-.84 2.064-.84.584 0 1.144.136 1.682.41l-.396.806c-.493-.232-.92-.348-1.286-.348zM.684 6.004c0-.912.227-1.766.683-2.564a5.015 5.015 0 011.88-1.886 5.07 5.07 0 012.577-.69c.912 0 1.766.227 2.564.683a5.014 5.014 0 011.886 1.88c.46.797.69 1.656.69 2.577a5.09 5.09 0 01-.662 2.53 5.043 5.043 0 01-1.86 1.893c-.797.474-1.67.71-2.618.71a5.056 5.056 0 01-2.611-.703 5.103 5.103 0 01-2.53-4.43zm.717 0c0 .788.199 1.527.595 2.215a4.386 4.386 0 001.62 1.62 4.39 4.39 0 002.208.588c.793 0 1.53-.199 2.208-.595a4.433 4.433 0 001.614-1.606c.4-.68.601-1.42.601-2.222 0-.793-.198-1.529-.595-2.208A4.417 4.417 0 008.04 2.182a4.255 4.255 0 00-2.215-.602c-.793 0-1.529.198-2.208.595a4.47 4.47 0 00-1.62 1.613 4.292 4.292 0 00-.595 2.215zM22.538 11h-6.57v-.977l2.633-2.646c.802-.811 1.33-1.39 1.585-1.736.256-.347.447-.684.575-1.012a2.91 2.91 0 00.191-1.06c0-.533-.162-.954-.485-1.264-.324-.315-.773-.472-1.347-.472a3.41 3.41 0 00-1.183.205c-.369.137-.781.385-1.237.745l-.601-.772c.92-.766 1.923-1.149 3.007-1.149.94 0 1.675.242 2.208.725.534.478.8 1.123.8 1.934 0 .634-.178 1.26-.533 1.88-.355.62-1.02 1.404-1.996 2.352l-2.188 2.14v.054h5.141V11zm8.067-5.01c0 1.726-.274 3.016-.82 3.868-.543.853-1.375 1.279-2.496 1.279-1.076 0-1.894-.436-2.454-1.306-.56-.875-.84-2.156-.84-3.842 0-1.74.27-3.033.813-3.876C25.35 1.27 26.178.85 27.289.85c1.085 0 1.907.44 2.468 1.319.565.88.848 2.153.848 3.821zm-5.462 0c0 1.453.17 2.513.512 3.178.342.66.887.991 1.634.991.757 0 1.303-.335 1.64-1.005.343-.674.513-1.73.513-3.165s-.17-2.486-.512-3.151c-.338-.67-.884-1.005-1.64-1.005-.748 0-1.293.33-1.635.991-.341.656-.512 1.711-.512 3.165zM38.562 11h-6.57v-.977l2.632-2.646c.802-.811 1.33-1.39 1.586-1.736.255-.347.447-.684.574-1.012.128-.328.192-.681.192-1.06 0-.533-.162-.954-.486-1.264-.323-.315-.772-.472-1.346-.472-.415 0-.81.068-1.183.205-.37.137-.782.385-1.237.745l-.602-.772c.92-.766 1.923-1.149 3.008-1.149.939 0 1.675.242 2.208.725.533.478.8 1.123.8 1.934 0 .634-.178 1.26-.533 1.88-.356.62-1.021 1.404-1.997 2.352l-2.187 2.14v.054h5.14V11zm5.646 0h-1.107V3.877c0-.592.018-1.153.054-1.682a7.214 7.214 0 01-.321.301c-.119.105-.66.55-1.627 1.333l-.602-.78 2.646-2.043h.957V11zM55.966.862h1.176v1.23h.478c.78 0 1.454.156 2.024.466.574.31 1.011.747 1.312 1.312.305.565.458 1.21.458 1.935 0 .756-.17 1.43-.513 2.023a3.26 3.26 0 01-1.394 1.326c-.588.297-1.283.445-2.085.445h-.28v1.538h-1.176V9.599h-.308c-.802 0-1.497-.15-2.085-.452a3.261 3.261 0 01-1.38-1.34 3.992 3.992 0 01-.5-1.989c0-.72.153-1.362.458-1.927a3.272 3.272 0 011.326-1.32c.575-.319 1.252-.478 2.03-.478h.459V.863zm1.176 7.76h.17c.916 0 1.628-.25 2.133-.746.51-.501.766-1.196.766-2.085 0-.843-.235-1.504-.704-1.982-.47-.479-1.126-.718-1.969-.718h-.396v5.53zM55.966 3.09h-.39c-.83 0-1.483.241-1.962.724-.474.483-.71 1.142-.71 1.976 0 .898.252 1.595.758 2.092.506.492 1.22.738 2.14.738h.164V3.09zm13.884.827c0 1.012-.347 1.791-1.04 2.338-.688.542-1.674.813-2.96.813h-1.175V11h-1.162V1.006h2.59c2.498 0 3.747.97 3.747 2.912zM64.675 6.07h1.046c1.03 0 1.775-.166 2.235-.499.46-.332.69-.866.69-1.6 0-.66-.216-1.152-.649-1.476-.433-.323-1.107-.485-2.023-.485h-1.3v4.06zM77.519 11h-5.57V1.006h5.57v1.032H73.11v3.22h4.143v1.025H73.11v3.678h4.41V11zm13.925 0H79.741V1.006h1.162v8.941h4.102V1.006h1.162v8.941h4.102V1.006h1.175V11zm11.423-5.01c0 1.599-.405 2.857-1.217 3.773-.806.916-1.93 1.374-3.37 1.374-1.472 0-2.609-.45-3.41-1.347-.798-.902-1.197-2.174-1.197-3.814 0-1.627.4-2.887 1.203-3.78.802-.898 1.941-1.347 3.418-1.347 1.436 0 2.557.455 3.363 1.367.807.911 1.21 2.17 1.21 3.773zm-7.964 0c0 1.353.287 2.38.862 3.082.578.698 1.417 1.046 2.515 1.046 1.108 0 1.944-.348 2.509-1.046.565-.697.848-1.725.848-3.083 0-1.344-.283-2.363-.848-3.055-.56-.698-1.392-1.046-2.495-1.046-1.108 0-1.95.35-2.53 1.052-.574.698-.86 1.714-.86 3.05zM112.294 11h-1.408l-4.621-5.065V11h-1.162V1.006h1.162v4.84l4.505-4.84h1.333l-4.423 4.853L112.294 11z" fill="#fff"/></svg>